<svg width="118" height="27" viewBox="0 0 118 27" fill="none" xmlns="http://www.w3.org/2000/svg">
<path d="M30.0123 6.87832C30.0123 2.23446 25.0793 0 19.2194 0C12.9509 0 7.19935 2.77345 5.08794 7.07256C4.5066 8.2123 4.20497 9.48068 4.20497 10.7696C4.18306 11.8875 4.48597 12.9835 5.08794 13.9084C5.99283 15.2411 7.60796 16.0799 9.97717 16.0799C12.8852 16.0799 15.1899 14.4886 15.1899 11.7151C15.1899 11.7151 15.2325 10.942 14.3276 10.942C13.5954 10.942 13.4008 11.4579 13.4227 11.7151C13.531 13.8866 12.2381 15.6283 9.93335 15.6283C7.34887 15.6283 6.27126 13.435 6.27126 11.0925C6.27126 6.29816 9.89081 3.11692 13.6599 1.74048C15.4271 1.07413 17.2794 0.751252 19.1743 0.773121C23.4396 0.773121 26.929 2.40684 26.929 6.79342C26.929 10.448 23.8482 13.565 20.1642 13.8441L20.3151 13.3501C21.0691 10.6629 21.9959 7.71833 23.5028 5.54691C23.5892 5.41698 23.74 5.20216 23.9127 4.98733L23.6974 4.72876C23.3739 4.92172 23.0723 5.13783 22.7706 5.37324C15.7055 10.8764 15.4903 26.3555 6.07661 26.3555C5.75436 26.3555 5.43082 26.3349 5.10728 26.2912C3.14669 25.9683 2.1129 24.6575 2.1129 22.8308C2.1129 22.4655 2.2418 21.9702 2.2418 21.6911C2.26371 21.1752 1.83318 20.7237 1.315 20.7237H1.20801C0.367575 20.7237 0.0234079 21.3888 0.00149465 22.3356C-0.062956 25.0653 1.96208 26.6565 5.08536 26.9576C5.42953 26.9794 5.77499 27 6.14107 27C13.4872 27 17.9884 21.4544 19.9064 14.7253C20.8758 14.6185 21.8451 14.4024 22.7706 14.1245C26.1788 13.1765 30.0123 10.8983 30.0123 6.87832Z" fill="#0064FF"/>
<path d="M99.9819 8.48828H97.3974L96.8148 9.84285L95.8029 12.1223H94.5964L94.2303 12.8967H95.4794L93.9712 16.2285C92.8949 18.571 91.214 20.8724 90.2447 20.8724C90.0294 20.8724 89.9005 20.7862 89.9005 20.5713C89.9005 20.3552 89.965 20.1623 90.2022 19.5602C90.5038 18.8514 91.0001 17.8185 91.3661 17.0659C91.9049 15.9699 92.766 14.2719 92.766 13.4332C92.766 12.5944 92.2272 11.9281 91.1715 11.9281C89.9869 11.9281 88.9093 12.6382 87.9193 13.6686L88.5664 12.121H86.1314L84.1502 16.635C83.3536 18.2262 81.7372 20.8698 80.7253 20.8698C80.5101 20.8698 80.4237 20.7411 80.4237 20.5263C80.4456 20.3334 80.4882 20.161 80.5745 19.9667C80.6609 19.7725 81.8455 17.0003 81.8455 17.0003L83.9994 12.0773H81.3711L79.2816 16.8717C78.6358 18.3549 76.9975 20.8711 75.9418 20.8711C75.7691 20.8929 75.5976 20.763 75.5757 20.5701V20.4839C75.5757 20.2266 75.7691 19.7532 75.9199 19.4084L77.0181 17.0003L79.2804 12.0773H76.674L76.1571 13.1952C75.7691 13.9477 75.1233 14.8289 74.0895 14.8289C73.5932 14.8289 73.3573 14.6359 73.2491 14.4417C73.0982 12.7861 72.0426 11.9049 70.4919 11.9049C68.3379 11.9049 66.8079 13.1733 65.7947 14.7221C65.127 15.7963 64.6101 16.936 64.244 18.1401C63.3172 19.667 62.3492 20.8492 61.5732 20.8492C61.3786 20.8492 61.2496 20.7411 61.2496 20.4839C61.2496 20.2266 61.5087 19.6464 61.5951 19.4303L63.2966 15.8194C63.771 14.7028 64.0932 13.9709 64.0932 13.2402C64.0932 12.4658 63.5544 11.9075 62.6714 11.9075C61.443 11.9075 60.1076 12.6176 59.0519 13.7779C59.0957 13.5837 59.0957 13.4126 59.0957 13.2183C59.0957 12.359 58.6652 11.9075 57.7809 11.9075C56.6608 11.9075 55.4981 12.5751 54.4424 13.7779L55.132 12.1005H52.7615L50.7584 16.6157C49.811 18.7447 48.2809 20.8518 47.4185 20.8518C47.2252 20.8518 47.0963 20.7437 47.0963 20.4864C47.0963 20.0787 47.5487 19.0676 47.7215 18.6598L50.3717 12.6626C50.565 12.2111 49.2941 11.9307 47.6789 11.9307C46.02 11.9307 44.3185 12.7475 43.0694 13.8011C42.1864 14.5317 41.5394 14.8971 41.2158 14.8971C41.0444 14.8971 40.9786 14.8109 40.9786 14.7041C40.9786 14.3388 41.8616 13.3058 41.8616 12.5108C41.8616 12.1455 41.6683 11.9088 41.172 11.9088C40.2246 11.9088 39.1044 12.8118 38.2859 13.7573L38.9755 12.1017H36.6488L34.6457 16.617C33.6983 18.746 32.1244 20.9598 31.2634 20.9598C31.0687 20.9598 30.9398 20.8531 30.9398 20.5945C30.9398 20.1867 31.3703 19.1975 31.6075 18.6803L34.2577 12.6613C34.4511 12.2098 33.1801 11.9294 31.565 11.9294C29.1739 11.9294 26.8472 13.5425 25.6188 15.1968C24.2614 16.981 23.3359 18.872 23.314 20.4208C23.2921 21.6673 23.9392 22.4418 25.2308 22.4418C26.6745 22.4418 27.8372 21.302 28.5049 20.4427C28.4623 20.6151 28.4404 20.7862 28.4185 20.9585C28.4185 21.8179 28.7627 22.4418 29.8184 22.4418C30.7439 22.4418 31.9723 21.6673 32.9636 20.4427L32.167 22.2707H34.687L37.1645 16.6607C37.983 14.8328 38.9098 13.8873 39.1676 13.8873C39.2539 13.8873 39.2978 13.931 39.2978 13.994C39.2978 14.1883 38.9098 14.7041 38.9098 15.1762C38.9098 15.6496 39.1676 16.015 39.8572 16.015C40.396 16.015 40.998 15.7564 41.5368 15.4129C40.2658 17.1328 39.4035 18.9389 39.4035 20.4234C39.3816 21.6699 40.0286 22.4443 41.3215 22.4443C42.6788 22.4443 43.9498 21.1541 44.6381 20.2948C44.6162 20.4877 44.5956 20.682 44.5956 20.8968C44.5956 21.7355 45.07 22.4443 46.0393 22.4443C47.1156 22.4443 47.978 21.778 49.0556 20.4671L48.259 22.2732H50.8434L53.2127 16.9206C54.2464 14.5986 55.6463 13.3521 56.3359 13.3521C56.5087 13.3303 56.6595 13.4602 56.6801 13.6326V13.6969C56.6582 13.9554 56.5731 14.2127 56.4648 14.4494L53.0618 22.2964H55.7108L58.1238 16.8357C59.1576 14.4919 60.2996 13.3521 61.1607 13.3521C61.4198 13.3521 61.5268 13.482 61.5268 13.7599C61.5049 14.0609 61.4185 14.3619 61.2896 14.6205L58.9629 19.5641C58.7477 20.0375 58.6188 20.552 58.5749 21.0692C58.5749 21.8217 58.9836 22.4881 60.1475 22.4881C61.6557 22.4881 62.7965 21.3483 64.0893 19.6503V20.0156C64.1976 21.3702 64.9504 22.5524 66.9548 22.5524C69.324 22.5524 71.2421 20.9187 72.4048 18.3176C72.8366 17.3927 73.1369 16.4253 73.2452 15.4142C73.5043 15.5441 73.8046 15.6084 74.0856 15.5866C74.4736 15.5866 74.8603 15.5004 75.2058 15.3074L74.7959 16.1886C74.3215 17.1778 73.8046 18.2739 73.396 19.1988C73.1382 19.7352 72.9874 20.3372 72.9436 20.9392C72.9436 21.8642 73.4605 22.5305 74.5162 22.5305C75.5719 22.5305 77.0156 21.5413 78.0493 20.1443H78.0713C78.0068 20.4234 77.963 20.7244 77.963 21.0254C77.963 21.7998 78.2002 22.5305 79.2778 22.5305C80.5268 22.5305 81.4962 21.6275 82.4436 20.4877L81.647 22.2938H84.2534L86.3428 17.5638C87.5275 14.8984 88.7121 13.2852 89.8116 13.2852C90.0062 13.2852 90.1557 13.4139 90.1777 13.6081V13.6724C90.1777 14.124 89.5306 15.3499 88.9505 16.5745C88.4117 17.6924 88.0018 18.5517 87.7221 19.2193C87.463 19.7776 87.3122 20.3797 87.2696 21.0036C87.2696 21.8204 87.7221 22.4443 88.7353 22.4443C90.2434 22.4443 91.7722 20.983 92.5907 19.8857C92.3973 20.4234 92.311 20.9611 92.2891 21.5194C92.2891 23.0245 93.194 23.777 94.4649 23.777C95.3054 23.777 96.1239 23.4979 96.8135 23.0026C97.8047 22.3144 98.6014 21.2827 99.2691 20.3372L98.8166 19.9063C98.1915 20.7875 97.5031 21.6262 96.7916 22.142C96.4036 22.4649 95.9511 22.636 95.4562 22.6579C94.9174 22.6579 94.5732 22.3774 94.5732 21.6905C94.5732 21.0023 94.8967 20.0774 95.3917 18.8309C95.4136 18.8103 96.1239 17.219 96.7916 15.6921C97.351 14.4018 97.9117 13.1553 98.0187 12.8967H99.7202L100.066 12.1223H98.3848L99.9819 8.48828ZM26.5017 20.8929C26.1357 20.8929 25.8766 20.7643 25.8766 20.2909C25.8985 19.0225 26.9529 16.7649 28.2677 14.9588C29.1932 13.7123 30.3997 12.7874 31.6926 12.7874L30.0556 16.442C28.8284 19.1949 27.493 20.8929 26.5017 20.8929ZM42.6157 20.8929C42.2496 20.8929 41.9918 20.7643 41.9699 20.2909C41.9905 19.0225 43.0462 16.7649 44.361 14.9588C45.2865 13.7123 46.493 12.7874 47.7859 12.7874L46.1489 16.442C44.8998 19.2592 43.6289 20.8929 42.6157 20.8929ZM71.2227 13.7779C71.1583 15.1749 69.9299 18.5504 68.4874 20.5713C67.9061 21.3882 67.4098 21.6249 66.9793 21.6249C66.3761 21.6249 66.2033 21.1296 66.2897 20.399C66.4186 19.1306 67.4743 16.1642 68.9386 14.1214C69.6063 13.1965 70.0588 12.8093 70.5769 12.8093C71.0938 12.8093 71.2446 13.2402 71.2227 13.7779Z" fill="#0064FF"/>
<path d="M111.428 12.1244L113.799 6.65723H110.991L108.619 12.1244H102.65L101.656 14.418H107.624L105.253 19.8852H108.061L110.433 14.418H116.401L117.396 12.1244H111.428Z" fill="#0064FF"/>
</svg>
